<?xml version="1.0" encoding="utf-8"?>
<!-- Generator: Adobe Illustrator 21.1.0, SVG Export Plug-In . SVG Version: 6.00 Build 0)  -->
<svg version="1.1" id="Layer_1" xmlns="http://www.w3.org/2000/svg" xmlns:xlink="http://www.w3.org/1999/xlink" x="0px" y="0px"
	 viewBox="0 0 289.2 46.3" style="enable-background:new 0 0 289.2 46.3;" xml:space="preserve">
<style type="text/css">
	.st0{fill:#DA291C;}
</style>
<g>
	<path class="st0" d="M48.5,0h27.1v2.9H51.7V21h22.3v2.9H51.7v19.6H76v2.8H48.5V0z"/>
	<path class="st0" d="M148.8,46.3h-3.2V0h3.2V46.3z M156.9,21.7l21.5,24.7h-3.9l-20.7-23.7v-1.8L173.6,0h3.9L156.9,21.7z"/>
	<path class="st0" d="M197.5,46.3h-3.2V0h3.2V46.3z"/>
	<path class="st0" d="M253.9,32.7c0.5,1.9,1,3.7,1.4,5.5c0.4,1.8,0.7,3.4,0.9,4.9h0.1c0.2-1.4,0.5-3,0.8-4.8
		c0.3-1.8,0.7-3.6,1.2-5.6l8-32.7h3.3l-11.3,46.3h-3.6l-10.8-36c-0.4-1.2-0.7-2.5-1-3.7c-0.3-1.3-0.6-2.3-0.8-3.1H242
		c-0.2,0.8-0.5,1.9-0.8,3.1c-0.3,1.3-0.7,2.5-1,3.7l-10.8,36h-3.6L214.4,0h3.3l8,32.7c0.5,1.9,0.8,3.8,1.2,5.6
		c0.3,1.8,0.6,3.4,0.8,4.8h0.1c0.2-1.5,0.5-3.1,0.9-4.9c0.4-1.8,0.9-3.6,1.4-5.5L239.9,0h4.3L253.9,32.7z"/>
	<path class="st0" d="M122.7,5.9C118.8,2,113.1,0,105.5,0H94.1v46.3h3.2v-4.6h0V3h8.1c6.3,0,11.2,1.6,14.6,4.7
		c3.4,3.2,5.2,8.3,5.2,15.4c0,3.5-0.4,6.6-1.3,9.1c-0.9,2.6-2.2,4.7-3.9,6.3c-1.7,1.7-3.8,2.9-6.2,3.6c-2.5,0.8-5.3,1.2-8.4,1.2
		h-3.2v3h3.2c7.6,0,13.3-2,17.2-5.9c3.9-3.9,5.8-9.7,5.8-17.3C128.5,15.5,126.6,9.8,122.7,5.9z"/>
	<path class="st0" d="M19.2,26.6c3.6-0.6,6.4-2,8.6-4.3c2.1-2.3,3.2-5.3,3.2-9c0-2-0.3-3.8-1-5.4c-0.7-1.6-1.6-3.1-2.9-4.2
		c-1.3-1.2-2.8-2.1-4.6-2.7c-1.8-0.6-3.9-1-6.3-1H0v46.3h3.2V26.9h0V24h0V2.9h12.9c3.8,0,6.7,0.9,8.6,2.8c1.9,1.9,2.9,4.4,2.9,7.7
		c0,3.3-1.1,6-3.2,7.8c-2.1,1.9-5.1,2.8-8.8,2.8H8.2v2.9h7.5h0.1l11.8,19.5h3.6L19.2,26.6z"/>
	<path class="st0" d="M289.2,46.3h-3.2V0h3.2V46.3z"/>
</g>
</svg>
